# xmcd
#
# Track frame offsets: 
#        150
#        19613
#        51195
#        83158
#        112061
#        136041
#        159732
#        181045
#        205950
#        242617
#        278085
#
# Disc length: 4026 seconds
#
# Revision: 0
# Processed by: cddbd v1.5.2PL0 Copyright (c) Steve Scherf et al.
# Submitted via: ExactAudioCopy v1.3
#
DISCID=8c0fb80b
DTITLE=えあどぐべ - えあどぐべ
DYEAR=2017
DGENRE=
TTITLE0=シャンデリア -Chandelier-  
TTITLE1=走れ走れ -Run! Run!-  
TTITLE2=チクタク時計 -Tick-tock Clock-  
TTITLE3=ラブソング -Love Song-  
TTITLE4=レインボースマイル -Rainbow Smile-  
TTITLE5=星が浮かんでいた -The Stars Floated Above-  
TTITLE6=蝉時雨が降る頃に -When the Cicadas Sing-
TTITLE7=昼間にそっとギターを弾く -Softly Strumming my Guitar-  
TTITLE8=夜更けのファンファーレ -Fanfare at Midnight-  
TTITLE9=愛しい人と夜と雨 -Rain, the Evening, and Thoughts of Her-  
TTITLE10=春になる -Springtime-
EXTD=
EXTT0=
EXTT1=
EXTT2=
EXTT3=
EXTT4=
EXTT5=
EXTT6=
EXTT7=
EXTT8=
EXTT9=
EXTT10=
PLAYORDER=
